<svg xmlns="http://www.w3.org/2000/svg" width="98" height="18" viewBox="0 0 98 18">
  <path id="Path_20" data-name="Path 20" d="M-5599.85-50.442a4.372,4.372,0,0,1-1.617-1.267.673.673,0,0,1-.171-.435.671.671,0,0,1,.327-.56.815.815,0,0,1,.43-.138.777.777,0,0,1,.645.326,2.786,2.786,0,0,0,1.061.831,3.485,3.485,0,0,0,1.454.287,2.679,2.679,0,0,0,1.38-.365,2.6,2.6,0,0,0,.993-1.073,3.412,3.412,0,0,0,.378-1.687v-.762a3.555,3.555,0,0,1-1.275,1.337,3.422,3.422,0,0,1-1.795.482,3.9,3.9,0,0,1-2.062-.552,3.714,3.714,0,0,1-1.417-1.531,4.71,4.71,0,0,1-.5-2.223,4.452,4.452,0,0,1,.549-2.238,3.838,3.838,0,0,1,1.521-1.531,4.464,4.464,0,0,1,2.232-.552,4.365,4.365,0,0,1,2.2.552,3.309,3.309,0,0,1,.563.384l-.007-.92h1.528v7.664a4.615,4.615,0,0,1-.549,2.238,4,4,0,0,1-1.535,1.592,4.308,4.308,0,0,1-2.232.584,4.974,4.974,0,0,1-2.092-.443Zm.7-9.878a2.575,2.575,0,0,0-.986,1.041,3.146,3.146,0,0,0-.364,1.508,3.113,3.113,0,0,0,.364,1.5,2.665,2.665,0,0,0,.986,1.034,2.753,2.753,0,0,0,1.432.373,2.747,2.747,0,0,0,1.424-.373,2.586,2.586,0,0,0,.979-1.034,3.185,3.185,0,0,0,.348-1.5,3.219,3.219,0,0,0-.348-1.508,2.594,2.594,0,0,0-.979-1.041,2.748,2.748,0,0,0-1.424-.373,2.754,2.754,0,0,0-1.432.373Zm-37.807,9.11a4.094,4.094,0,0,1-1.58-.318,4.112,4.112,0,0,1-1.284-.865,3.948,3.948,0,0,1-.86-1.285,3.84,3.84,0,0,1-.319-1.573v-8.707a3.838,3.838,0,0,1,.319-1.573,3.947,3.947,0,0,1,.86-1.285,4.109,4.109,0,0,1,1.284-.865,4.1,4.1,0,0,1,1.58-.318h8.73a4.1,4.1,0,0,1,1.58.318,4.11,4.11,0,0,1,1.283.865,3.938,3.938,0,0,1,.86,1.285,3.822,3.822,0,0,1,.319,1.573v8.7a3.824,3.824,0,0,1-.319,1.573,3.94,3.94,0,0,1-.86,1.285,4.11,4.11,0,0,1-1.283.865,4.1,4.1,0,0,1-1.58.317Zm1.253-7.989a3.657,3.657,0,0,0,.289,1.484,2.4,2.4,0,0,0,.838,1.026,2.075,2.075,0,0,0,1.2.365h.038a1.234,1.234,0,0,0,.756-.217.682.682,0,0,0,.3-.56.847.847,0,0,0-.193-.56.669.669,0,0,0-.512-.218h-.393a.666.666,0,0,1-.563-.373,1.912,1.912,0,0,1-.208-.948v-3.669h-1.558Zm4.2-2.658a1.017,1.017,0,0,0,1.016,1.011,1.006,1.006,0,0,0,1.009-1.011,1.006,1.006,0,0,0-1.009-1.01,1.021,1.021,0,0,0-1.016,1.009Zm71.452,7.943a3.231,3.231,0,0,1-1.343-1.36,4.436,4.436,0,0,1-.482-2.153v-4.617h1.587v4.617a2.565,2.565,0,0,0,.675,1.9,2.511,2.511,0,0,0,1.8.645,2.688,2.688,0,0,0,1.194-.264,2.161,2.161,0,0,0,.838-.715,1.811,1.811,0,0,0,.3-1.01v-5.176h1.587v7.725a.8.8,0,0,1-.215.567.766.766,0,0,1-.579.225.765.765,0,0,1-.563-.225.749.749,0,0,1-.23-.567v-.171a3.425,3.425,0,0,1-1.187.769,3.913,3.913,0,0,1-1.461.272,3.939,3.939,0,0,1-1.929-.467Zm10.585-.117a4.057,4.057,0,0,1-1.55-1.554,4.392,4.392,0,0,1-.564-2.2,4.713,4.713,0,0,1,.52-2.2,3.945,3.945,0,0,1,1.439-1.547,3.79,3.79,0,0,1,2.032-.56,3.868,3.868,0,0,1,1.684.373,3.879,3.879,0,0,1,1.32,1.042v-4.991H-5543V-54.32a.794.794,0,0,1-.793.793.789.789,0,0,1-.793-.793v-.073a3.536,3.536,0,0,1-.519.36,4.236,4.236,0,0,1-2.174.568,4.3,4.3,0,0,1-2.188-.568Zm.778-6.28a2.764,2.764,0,0,0-1,1.041,2.969,2.969,0,0,0-.364,1.485,3.162,3.162,0,0,0,.364,1.492,2.718,2.718,0,0,0,1,1.049,2.667,2.667,0,0,0,1.41.381,2.686,2.686,0,0,0,1.409-.381,2.685,2.685,0,0,0,.995-1.049,3.149,3.149,0,0,0,.348-1.492,3.117,3.117,0,0,0-.348-1.485,2.732,2.732,0,0,0-.995-1.041,2.685,2.685,0,0,0-1.409-.381,2.689,2.689,0,0,0-1.41.38Zm-21.97,6.3a3.918,3.918,0,0,1-1.535-1.531,4.556,4.556,0,0,1-.55-2.223,4.615,4.615,0,0,1,.55-2.238,3.917,3.917,0,0,1,1.535-1.531,4.429,4.429,0,0,1,2.218-.552,4.394,4.394,0,0,1,2.21.552,4.038,4.038,0,0,1,1.528,1.531,4.445,4.445,0,0,1,.549,2.238,4.464,4.464,0,0,1-.542,2.223,3.962,3.962,0,0,1-1.521,1.531,4.424,4.424,0,0,1-2.225.552,4.43,4.43,0,0,1-2.218-.553Zm.8-6.3a2.644,2.644,0,0,0-.994,1.042,3.219,3.219,0,0,0-.356,1.508,3.186,3.186,0,0,0,.356,1.5,2.635,2.635,0,0,0,.994,1.034,2.74,2.74,0,0,0,1.417.373,2.726,2.726,0,0,0,1.424-.373,2.551,2.551,0,0,0,.986-1.034,3.192,3.192,0,0,0,.356-1.5,3.324,3.324,0,0,0-.356-1.508,2.514,2.514,0,0,0-.986-1.042,2.726,2.726,0,0,0-1.424-.373,2.746,2.746,0,0,0-1.417.372Zm-14.8,6.3a3.952,3.952,0,0,1-1.543-1.547,4.457,4.457,0,0,1-.549-2.2,4.585,4.585,0,0,1,.534-2.231,3.916,3.916,0,0,1,1.5-1.539,4.37,4.37,0,0,1,2.188-.552,3.861,3.861,0,0,1,3.048,1.4.583.583,0,0,1,.156.4.667.667,0,0,1-.342.575.6.6,0,0,1-.356.109.789.789,0,0,1-.608-.281,2.486,2.486,0,0,0-.853-.614,2.637,2.637,0,0,0-1.046-.194,2.556,2.556,0,0,0-1.951.8,2.967,2.967,0,0,0-.741,2.122,3.1,3.1,0,0,0,.349,1.5,2.584,2.584,0,0,0,.979,1.034,2.782,2.782,0,0,0,1.446.373,2.567,2.567,0,0,0,1.707-.544,1.01,1.01,0,0,1,.579-.218.677.677,0,0,1,.408.138.7.7,0,0,1,.289.56.567.567,0,0,1-.186.42,3.942,3.942,0,0,1-2.8,1.042,4.343,4.343,0,0,1-2.209-.558Zm-25.887.008a3.889,3.889,0,0,1-1.521-1.531,4.475,4.475,0,0,1-.548-2.223,4.533,4.533,0,0,1,.548-2.238,3.891,3.891,0,0,1,1.521-1.531,4.487,4.487,0,0,1,2.232-.552,4.391,4.391,0,0,1,2.2.552,3.991,3.991,0,0,1,1.528,1.531,4.527,4.527,0,0,1,.548,2.238,4.474,4.474,0,0,1-.548,2.222,3.843,3.843,0,0,1-1.514,1.531,4.412,4.412,0,0,1-2.218.552,4.512,4.512,0,0,1-2.232-.553Zm.8-6.3a2.626,2.626,0,0,0-.987,1.042,3.139,3.139,0,0,0-.356,1.508,3.106,3.106,0,0,0,.356,1.5,2.722,2.722,0,0,0,.987,1.034,2.77,2.77,0,0,0,1.431.373,2.725,2.725,0,0,0,1.424-.373,2.587,2.587,0,0,0,.979-1.034,3.192,3.192,0,0,0,.356-1.5,3.227,3.227,0,0,0-.356-1.508,2.6,2.6,0,0,0-.979-1.042,2.73,2.73,0,0,0-1.424-.373,2.776,2.776,0,0,0-1.431.373Zm34.794,6.793a2.08,2.08,0,0,1-1.2-.365,2.329,2.329,0,0,1-.831-1.026,3.639,3.639,0,0,1-.3-1.484v-9.265h1.558V-56.4a1.773,1.773,0,0,0,.223.948.624.624,0,0,0,.548.373h.4a.651.651,0,0,1,.5.218.849.849,0,0,1,.193.56.675.675,0,0,1-.3.559,1.248,1.248,0,0,1-.764.218Zm-15.658-.225a.807.807,0,0,1-.23-.567V-62.03h1.595v7.71a.805.805,0,0,1-.223.567.749.749,0,0,1-.571.226.758.758,0,0,1-.571-.225Zm-23.751.225a2.105,2.105,0,0,1-1.209-.365,2.382,2.382,0,0,1-.83-1.026,3.523,3.523,0,0,1-.3-1.484v-9.265h1.55V-56.4a2.006,2.006,0,0,0,.222.948.647.647,0,0,0,.564.373h.386a.647.647,0,0,1,.512.218.776.776,0,0,1,.193.56.675.675,0,0,1-.3.559,1.246,1.246,0,0,1-.763.218Zm23.6-10.189a.956.956,0,0,1-.3-.723.957.957,0,0,1,.3-.723.982.982,0,0,1,.719-.3,1,1,0,0,1,.727.3.958.958,0,0,1,.3.723.957.957,0,0,1-.3.723,1,1,0,0,1-.727.3.983.983,0,0,1-.719-.3Z" transform="translate(5641.002 67.998)" fill="#99a0ae"/>
</svg>
