<svg xmlns="http://www.w3.org/2000/svg" xmlns:xlink="http://www.w3.org/1999/xlink" width="75" height="64" viewBox="0 0 75 64">
  <defs>
    <clipPath id="clip-path">
      <rect id="Rectangle_83" data-name="Rectangle 83" width="75" height="64" fill="none"/>
    </clipPath>
  </defs>
  <g id="logo" transform="translate(-98 -60)">
    <g id="Group_575" data-name="Group 575" transform="translate(98 60)">
      <g id="Group_574" data-name="Group 574" clip-path="url(#clip-path)">
        <path id="Path_72" data-name="Path 72" d="M75,217.593a7.2,7.2,0,0,0-.5-2.563c-2.646-8.942-18.222-15.81-37.048-15.81-20.2,0-36.654,7.905-37.413,17.8-.017.192-.036.384-.036.575v.13s0,.005,0,.008,0,.005,0,.008v.059c0,.087.013.175.016.263.358,10.07,16.974,18.18,37.433,18.18,18.953,0,34.607-6.961,37.1-15.991A7.135,7.135,0,0,0,75,217.8Z" transform="translate(0 -172.241)" fill="#58b6b1"/>
        <path id="Path_73" data-name="Path 73" d="M171.5,292.293H164.29v-3.4h8.958l-.352,1.753h2.116l.743-3.66H160.878v1.907h1.16v9.365h-1.16v1.907h3.165c.067,0,6.775,0,6.9-.009,2.947-.139,5.006-1.877,5.006-4.225,0-2.208-1.747-3.636-4.452-3.636m2.128,3.654c0,1.359-.891,2.1-2.716,2.266-.119.006-2.344.011-4.132.015l-2.49.007V294.2h6.776c1.169,0,2.563.3,2.563,1.747" transform="translate(-139.087 -248.118)" fill="#fff"/>
        <path id="Path_74" data-name="Path 74" d="M297.6,288.89v-1.907h-14.92v1.907h1.16v9.365h-1.16v1.907h4.536v-1.907h-1.124V288.89h8.1v9.365H293.06v1.907H297.6v-1.907h-1.16V288.89Z" transform="translate(-244.387 -248.118)" fill="#fff"/>
        <rect id="Rectangle_81" data-name="Rectangle 81" width="9.425" height="0.987" transform="translate(0.128 3.746)" fill="#58b6b1"/>
        <rect id="Rectangle_82" data-name="Rectangle 82" width="9.425" height="0.987" transform="translate(65.448 3.746)" fill="#58b6b1"/>
        <path id="Path_75" data-name="Path 75" d="M.435,85.223l1.145-.075q-.016,7.6-.031,15.206-.558.251-1.114.512v2.243q1.93-1.023,3.884-1.9.007-1.019.013-2.037-.545.218-1.088.445.036-7.292.072-14.577,1.6-.1,3.208-.179-.065,6.756-.131,13.523-.548.2-1.094.409-.008,1-.016,1.991,1.959-.845,3.938-1.558.012-.911.024-1.821-.569.183-1.136.375.077-6.509.154-13.007l1.148-.054L9.436,82.9q-4.5.031-9,.076Z" transform="translate(-0.376 -71.676)" fill="#005477"/>
        <path id="Path_76" data-name="Path 76" d="M76.788,94.72l-.072.017q.086-5.282.173-10.555l1.15-.043q.014-.821.028-1.642l-4.044.025L74,84.3l1.149-.049q-.105,6.929-.21,13.873,1.221-.4,2.448-.753c1.118-4.331,2.243-8.393,3.366-12.243l.072,0q-.088,4.908-.176,9.823-.576.125-1.152.257-.014.8-.028,1.6,2.023-.523,4.058-.937.013-.747.027-1.494-.578.105-1.156.218.1-5.3.191-10.6l1.151-.031q.013-.746.027-1.492l-3.631.016c-1.117,3.844-2.235,7.9-3.346,12.233" transform="translate(-63.975 -71.302)" fill="#005477"/>
        <path id="Path_77" data-name="Path 77" d="M156.6,82.344l-4.009.013-.026,1.468,1.152-.027q-.087,5.04-.173,10.085-.58.091-1.159.189l-.026,1.47q2.037-.387,4.084-.674.011-.7.022-1.4-.581.073-1.162.152.031-1.887.061-3.773l.76-.068c2.481-.231,4.406-1.946,4.43-4.158.024-2.162-1.725-3.279-3.953-3.282m-.744,6.059-.47.035.076-4.677.684-.013c1.656-.027,2.6.66,2.583,1.951-.021,1.572-1.011,2.564-2.873,2.7" transform="translate(-131.717 -71.193)" fill="#005477"/>
        <path id="Path_78" data-name="Path 78" d="M222.842,80.495c-2.783-.012-4.067,2.351-4.107,5.806q0,.428-.009.856c-.039,3.464,1.212,5.683,4.049,5.544,2.838-.111,4.118-2.369,4.114-5.726q0-.417,0-.833c0-3.349-1.264-5.645-4.047-5.647m2.233,6.27c0,2.67-.593,4.5-2.292,4.561s-2.266-1.748-2.242-4.464q0-.2,0-.406c.024-2.713.616-4.582,2.29-4.586s2.246,1.828,2.241,4.5q0,.2,0,.4" transform="translate(-189.099 -69.594)" fill="#005477"/>
        <path id="Path_79" data-name="Path 79" d="M288.273,83.52l1.153,0q.018,4.546.036,9.093-.584-.015-1.168-.024,0,.65,0,1.3,2.14.036,4.278.169-.006-.66-.011-1.319-.666-.037-1.332-.066-.029-4.573-.059-9.145,1.4.009,2.792.023-.257,1.345-.515,2.681.8.021,1.608.046.393-2.015.781-4.054-3.785-.007-7.569-.009,0,.65,0,1.3" transform="translate(-249.223 -71.084)" fill="#005477"/>
        <path id="Path_80" data-name="Path 80" d="M359.465,87.016c-.07-3.9-1.377-6.556-4.161-6.523s-4.011,2.42-3.967,5.91q.006.436.011.872c.043,3.5,1.354,6.005,4.173,6.471,2.816.5,4.03-1.859,3.961-5.767q-.009-.481-.017-.962M355.5,92.252c-1.689-.248-2.3-2.254-2.342-5.089q0-.213-.006-.426c-.042-2.832.506-4.772,2.179-4.752s2.285,2.1,2.338,5.105q0,.225.008.45c.053,3.013-.489,4.971-2.177,4.712" transform="translate(-303.746 -69.592)" fill="#005477"/>
        <path id="Path_81" data-name="Path 81" d="M425.753,89.811a3.422,3.422,0,0,0,1.951-3.432,3.638,3.638,0,0,0-3.955-3.837l-3.937-.019q.014.765.028,1.53l1.151.035.2,10.887q-.576-.124-1.154-.24l.028,1.533q1.362.308,2.719.665c3.019.83,5.251.076,5.207-3.219a4.158,4.158,0,0,0-2.234-3.9m-3.018-5.666.611.021c1.528.046,2.527.807,2.55,2.26.025,1.633-.85,2.793-2.556,2.566l-.521-.064q-.042-2.393-.084-4.784m.2,11.225q-.042-2.417-.085-4.831.467.07.934.143a2.562,2.562,0,0,1,2.4,2.549c.029,1.931-1.222,2.531-3.25,2.139" transform="translate(-362.949 -71.347)" fill="#005477"/>
        <path id="Path_82" data-name="Path 82" d="M494.145,100.459c-.744-6.131-1.512-11.927-2.3-17.422l-3.683-.03q.01.948.021,1.9l.861.044q-.911,6.691-1.8,12.822-.559-.186-1.119-.364.012.9.024,1.81,1.847.658,3.677,1.427-.009-.983-.017-1.965-.459-.172-.918-.337.187-1.555.375-3.139,1.32.382,2.634.806.221,1.816.44,3.67-.412-.172-.824-.338.007,1.023.013,2.046,1.856.842,3.691,1.812v-2.243q-.539-.254-1.08-.5M489.5,93.321q.477-3.9.964-7.991l.072,0q.561,4.164,1.109,8.541-1.07-.289-2.145-.554" transform="translate(-420.282 -71.766)" fill="#005477"/>
        <path id="Path_83" data-name="Path 83" d="M93.942,6.965c0-1.5-1.242-2.233-2.77-2.233h-.609V2.165h1.958l-.358,1.886h1.063l.549-2.818H88.64v.931H89.4V8.66H88.64v.931h1.922c1.887,0,3.379-1.051,3.379-2.626m-3.379-1.3h.323c1.158,0,1.851.43,1.851,1.313,0,1.062-.74,1.6-2.173,1.671Z" transform="translate(-76.634 -1.067)" fill="#005477"/>
        <path id="Path_84" data-name="Path 84" d="M135.846,8.691c1.851,0,2.687-1.647,2.687-4.047v-.6c0-2.4-.836-4.047-2.687-4.047s-2.687,1.648-2.687,4.047v.6c0,2.4.836,4.047,2.687,4.047M134.353,4.2c0-1.91.382-3.223,1.493-3.223s1.493,1.313,1.493,3.223v.286c0,1.91-.382,3.224-1.493,3.224s-1.493-1.313-1.493-3.224Z" transform="translate(-115.122)" fill="#005477"/>
        <path id="Path_85" data-name="Path 85" d="M180.433,2.607V2.165h1.122V8.66h-.764v.931h2.687V8.66h-.764V2.165h.764V1.234h-4.872v.931h.884v.37c0,2.221-.179,5.48-1.361,6.029l.358-1.791H177.4l-.514,2.818a6.4,6.4,0,0,0,.74.084c2.794,0,2.806-4.68,2.806-7.068" transform="translate(-152.926 -1.067)" fill="#005477"/>
        <path id="Path_86" data-name="Path 86" d="M235.7,6.941c0-1.5-1.242-2.256-2.77-2.256h-.609V2.165h.764V1.234H230.4v.931h.764V8.66H230.4v.931h1.923c1.887,0,3.379-1.074,3.379-2.65M232.32,5.615h.322c1.158,0,1.851.454,1.851,1.337,0,1.063-.74,1.624-2.173,1.7Z" transform="translate(-199.19 -1.067)" fill="#005477"/>
        <path id="Path_87" data-name="Path 87" d="M275.487,8.66h-.764V5.771h2.257V8.66h-.764v.931H278.9V8.66h-.764V2.165h.764V1.234h-2.687v.931h.764V4.84h-2.257V2.165h.764V1.234H272.8v.931h.764V8.66H272.8v.931h2.687Z" transform="translate(-235.849 -1.067)" fill="#005477"/>
        <path id="Path_88" data-name="Path 88" d="M326.485,8.66v.931h2.687V8.66h-.764V2.165h.764V1.234H326.76l-2.09,6.781h-.048V2.165h.764V1.234H322.7v.931h.764V9.591H325.1l2.1-6.781h.048V8.66Z" transform="translate(-278.989 -1.067)" fill="#005477"/>
        <path id="Path_89" data-name="Path 89" d="M382.051,9.591h2.484V8.66h-.621l.274-1.576h1.779l.286,1.576h-.561v.931h2.531V8.66h-.74l-1.5-7.426h-2.448v.931h.573L382.8,8.66h-1.875V2.165h.764V1.234H379.03v.931h.74V8.66h-2.078V2.165h.74V1.234H375.77v.931h.764V8.66h-.764v.931h5.171l-.358,1.886h1.063l.406-2.084Zm3-7.282h.048l.7,3.844h-1.445Z" transform="translate(-324.871 -1.067)" fill="#005477"/>
      </g>
    </g>
  </g>
</svg>
